<svg id="Layer_1" data-name="Layer 1" xmlns="http://www.w3.org/2000/svg" viewBox="0 0 31 26"><defs><style>.cls-1{fill:#789;}</style></defs><path class="cls-1" d="M27.27,12.29,23.44,8.47a1,1,0,0,0-1.7.71v1.6h-4v-4h1.6A1,1,0,0,0,20,5.06L16.21,1.23a1,1,0,0,0-1.42,0L11,5.06a1,1,0,0,0,.71,1.7h2v4H9.26V9.18a1,1,0,0,0-1.7-.71L3.73,12.29a1,1,0,0,0,0,1.42l3.83,3.82a1,1,0,0,0,1.7-.71v-2h4.46v4.46h-2a1,1,0,0,0-.71,1.7l3.82,3.83a1,1,0,0,0,1.42,0L20,20.94a1,1,0,0,0-.71-1.7h-1.6V14.78h4v2a1,1,0,0,0,1.7.71l3.83-3.82A1,1,0,0,0,27.27,12.29Z"/></svg>