<svg xmlns="http://www.w3.org/2000/svg" viewBox="0 0 21.91 21.91"><defs><style>.cls-1{fill:#789;}</style></defs><g id="Layer_2" data-name="Layer 2"><g id="Layer_1-2" data-name="Layer 1"><path class="cls-1" d="M21.64,10.31,18.17,6.84a.91.91,0,0,0-1.55.64V8.94H13V5.29h1.46a.91.91,0,0,0,.64-1.55L11.6.27a.91.91,0,0,0-1.29,0L6.84,3.74a.91.91,0,0,0,.64,1.55H9.34V8.94h-4V7.48a.91.91,0,0,0-1.55-.64L.27,10.31a.91.91,0,0,0,0,1.29l3.47,3.47a.91.91,0,0,0,1.55-.64V12.57H9.34v4.05H7.48a.91.91,0,0,0-.64,1.55l3.47,3.47a.91.91,0,0,0,1.29,0l3.47-3.47a.91.91,0,0,0-.64-1.55H13V12.57h3.65v1.86a.91.91,0,0,0,1.55.64l3.47-3.47A.91.91,0,0,0,21.64,10.31Z"/></g></g></svg>