<svg xmlns="http://www.w3.org/2000/svg" viewBox="0 0 22.1 22.2"><defs><style>.cls-1{fill:#789;}</style></defs><g id="Layer_2" data-name="Layer 2"><g id="Layer_1-2" data-name="Layer 1"><path class="cls-1" d="M21.71,19.92l-5.36-5.36A9.08,9.08,0,1,0,9.1,18.19a9,9,0,0,0,5.36-1.76l5.37,5.38a1.33,1.33,0,0,0,1.88,0A1.34,1.34,0,0,0,21.71,19.92ZM9.1,15.53A6.44,6.44,0,1,1,15.53,9.1,6.44,6.44,0,0,1,9.1,15.53Z"/><path class="cls-1" d="M12.12,10.28h-6a1.33,1.33,0,1,1,0-2.66h6a1.33,1.33,0,1,1,0,2.66Z"/></g></g></svg>