<svg xmlns="http://www.w3.org/2000/svg" viewBox="0 0 22.16 22.26"><defs><style>.cls-1{fill:#789;}</style></defs><g id="Layer_2" data-name="Layer 2"><g id="Layer_1-2" data-name="Layer 1"><path class="cls-1" d="M21.77,20,16.4,14.6a9.09,9.09,0,1,0-1.9,1.88l5.38,5.39a1.35,1.35,0,0,0,.95.39,1.33,1.33,0,0,0,.94-.39A1.34,1.34,0,0,0,21.77,20ZM9.12,15.57a6.45,6.45,0,1,1,6.45-6.45A6.46,6.46,0,0,1,9.12,15.57Z"/><path class="cls-1" d="M12.15,7.64H10.6V6.09a1.34,1.34,0,0,0-2.67,0V7.64H6.09a1.34,1.34,0,0,0,0,2.67H7.93v1.84a1.34,1.34,0,1,0,2.67,0V10.31h1.55a1.34,1.34,0,1,0,0-2.67Z"/></g></g></svg>