<svg xmlns="http://www.w3.org/2000/svg" viewBox="0 0 22.22 22.22"><defs><style>.cls-1{fill:#51b751;}.cls-2{fill:none;stroke:#51b751;stroke-miterlimit:10;stroke-width:2px;}</style></defs><g id="Layer_2" data-name="Layer 2"><g id="Layer_1-2" data-name="Layer 1"><path class="cls-1" d="M9.44,6.9a3.82,3.82,0,0,1,2.05-.54A3.8,3.8,0,0,1,13,6.65a2.27,2.27,0,0,1,1,.8,1.93,1.93,0,0,1,.37,1.18A2.21,2.21,0,0,1,14,9.88a7.59,7.59,0,0,1-1,1.21,8.48,8.48,0,0,0-.85,1,1.86,1.86,0,0,0-.36.91l-.06.38h-1v-.56A2.77,2.77,0,0,1,11,11.52a5.92,5.92,0,0,1,.8-1.16,5.72,5.72,0,0,0,.59-.81,1.44,1.44,0,0,0,.21-.77A.87.87,0,0,0,12.28,8a1.4,1.4,0,0,0-.92-.27,3.58,3.58,0,0,0-1.92.59Zm.88,7.43h1.93v1.93H10.32Z"/><circle class="cls-2" cx="11.11" cy="11.11" r="10.11"/></g></g></svg>